<?xml version="1.0" encoding="utf-8"?>
<!-- Generator: Adobe Illustrator 22.0.0, SVG Export Plug-In . SVG Version: 6.00 Build 0)  -->
<svg version="1.1" id="Layer_1" xmlns="http://www.w3.org/2000/svg" xmlns:xlink="http://www.w3.org/1999/xlink" x="0px" y="0px"
	 viewBox="0 0 255 100" style="enable-background:new 0 0 255 100;" xml:space="preserve">
<style type="text/css">
	.st0{fill:#FFFFFF;}
	.st1{fill:#9AABBC;}
</style>
<rect id="Rectangle-8-Copy-4" class="st0" width="255" height="100"/>
<path id="Shape" class="st1" d="M68.4,60.5c2,0,3.6-1.6,3.6-3.6s-1.6-3.6-3.6-3.6h-8.3v-5.5h7.6l0,0c1.8,0,3.3-1.5,3.3-3.3
	c0-1.8-1.5-3.3-3.3-3.3l-9.4,0v19.5L68.4,60.5z M73,50c2.6,1.2,4.3,3.9,4.3,6.9h-0.1l0,0c0,5-4,9.1-8.9,9.1l-10,0H53V35.6h5.3l9.3,0
	c4.7,0,8.6,4,8.6,8.8l0-0.1C76.3,46.7,75,48.9,73,50L73,50z M101.2,66l0-9.7H89.3v-5.5h11.9l0-3.3c0-3.9-3-7-6.8-7
	c-3.8,0-6.8,3.1-6.8,7l0,18.5l-5.3,0l-0.1-18.5c0-6.9,5.4-12.4,12.1-12.4c6.7,0,12.1,5.6,12.1,12.4l0,18.5L101.2,66z M132.2,50
	L132.2,50c2.7,1.2,4.4,3.9,4.4,6.9l0,9.1h-5.3l0-9.1c0-1-0.4-1.9-1-2.6s-1.6-1.1-2.5-1.1h-8.3v-5.5h7.6l0,0c1.8,0,3.2-1.5,3.2-3.3
	c0-1.8-1.4-3.3-3.2-3.3l-9.4,0l0,25h-5.3V35.6h5.3l9.3,0c4.7,0,8.6,4,8.6,8.8l0-0.1C135.5,46.7,134.2,48.9,132.2,50z M154.2,66
	c-8.2,0-14.8-6.8-14.8-15.2c0-8.4,6.6-15.2,14.8-15.2h8.8l0,5.4h-8.8c-5.2,0-9.5,4.3-9.5,9.7s4.2,9.7,9.5,9.7h8.8l0,5.5H154.2z"/>
<path id="Shape_1_" class="st1" d="M180,60.6c5.6,0,10.1-4.5,10.1-10.1c0-5.6-4.5-10.1-10.1-10.1c-5.6,0-10.1,4.5-10.1,10.1
	C169.9,56.1,174.5,60.6,180,60.6z M180,56.5c3.3,0,5.9-2.7,5.9-6s-2.7-6-5.9-6c-3.3,0-5.9,2.7-5.9,6S176.8,56.5,180,56.5z
	 M165.7,44.8c2.3-5.8,7.8-9.8,14.4-9.8c6.6,0,12.2,4.1,14.4,9.9l0,0c0.6,1.6,2.2,2.7,3.9,2.7l0.1,0h4.5v6h-4.5l-0.1,0
	c-1.7,0-3.2,1-3.9,2.6l0,0c-2.2,5.8-7.8,9.9-14.4,9.9c-6.5,0-12.1-4-14.4-9.8c-0.6-1.6-2.1-2.7-3.9-2.7l-4.8,0v-6l4.8,0
	C163.6,47.6,165.1,46.5,165.7,44.8z"/>
</svg>
