<?xml version="1.0" encoding="utf-8"?>
<!-- Generator: Adobe Illustrator 22.0.0, SVG Export Plug-In . SVG Version: 6.00 Build 0)  -->
<svg version="1.1" id="Layer_1" xmlns="http://www.w3.org/2000/svg" xmlns:xlink="http://www.w3.org/1999/xlink" x="0px" y="0px"
	 viewBox="0 0 255 100" style="enable-background:new 0 0 255 100;" xml:space="preserve">
<style type="text/css">
	.st0{fill:#FFFFFF;}
	.st1{fill:#9AABBC;}
</style>
<rect id="Rectangle-8-Copy" class="st0" width="255" height="100"/>
<path id="path1121" class="st1" d="M213.5,44.5c0-0.2,0-0.3-0.2-0.4c-0.1-0.2-0.3-0.2-0.5-0.2h-3.4c-0.3,0-0.6,0.2-0.6,0.5l-0.3,1.3
	c-0.8-0.7-1.5-1.1-2.6-1.5l-0.4-0.2c0,0-0.1,0-0.1,0c-3.7-0.8-7.4,0.3-10.4,3.1c-1.5,1.4-2.7,3-3.4,4.7l3.4-18c0-0.2,0-0.3-0.1-0.4
	c-0.1-0.1-0.2-0.2-0.4-0.2h-4.5c-0.1,0-0.3,0.1-0.4,0.2c0,0-13.6,17.8-15.7,20.2c0.8-3,3.6-19.8,3.6-19.8v-0.1c0-0.1,0-0.3-0.1-0.4
	c-0.1-0.1-0.2-0.2-0.4-0.2h-4.7c-0.1,0-0.3,0.1-0.4,0.2l-22.7,26.2c-0.4-3.8-2.2-8-2.2-8c-3-6.1-9.6-8.2-13.4-4.9
	c-0.2,0.1-0.4,0.2-0.6,0.3c2.9-4.1,9.7-3.7,14.2,1.3c0,0,2,2.4,3.4,6c0.4-1.3,0.6-2.6,0.7-4c-2.4-3.2-5-5.1-5-5.1
	c-5.6-3.7-12.2-2.4-14,2.3c-0.2,0.2-0.4,0.5-0.5,0.8c0.5-5,6.6-8.1,12.9-5.9c0,0,3.1,1.1,6.2,3.6c0-0.2-0.1-0.4-0.1-0.6
	c-0.4-1.3-0.8-2.6-1.5-3.8c-3.6-1.6-6.9-1.9-6.9-1.9c-6.8-0.4-11.9,4.3-10.9,9.4c0,0.1,0,0.2,0,0.3c0,0.2,0,0.3,0,0.4
	c-2.3-4.6,1.4-10.5,8.1-11.8c0,0,3.2-0.5,7.1,0c-1-1.1-2.1-1.9-3.4-2.7c-3.9,0.4-6.8,1.8-6.8,1.8c-6.2,3-8.2,9.7-4.8,13.6
	c0.1,0.2,0.3,0.4,0.4,0.6c-4.3-2.8-4.1-9.8,1.1-14.3c0,0,2.5-2,6.1-3.5c-1.5-0.4-3.1-0.7-4.6-0.7c-3,2.3-4.8,4.8-4.8,4.8
	c-3.9,5.7-2.2,12.6,2.8,14.2l0,0l0.1,0c0.2,0.1,0.3,0.2,0.5,0.3c-5.2-0.3-8.5-6.5-6.2-13c0,0,1.1-2.8,3.3-5.8
	c-1.3,0.4-2.6,0.8-3.7,1.5c-1.5,3.5-1.8,6.6-1.8,6.6c-0.5,6.8,4.2,11.9,9.3,11h0.3c0.2,0,0.4,0,0.5-0.1c-4.6,2.3-10.5-1.4-11.8-8.1
	c0,0-0.5-3,0-6.8c-1.1,1.1-2.1,2.3-2.9,3.6c0.5,3.7,1.8,6.5,1.8,6.5c3,6.2,9.8,8.3,13.7,4.7h0l0.1-0.1c0.2-0.1,0.3-0.2,0.5-0.3
	c-2.8,4.4-9.8,4.2-14.4-1.1c0,0-2.2-2.9-3.4-6.3c0-0.1-0.1-0.3-0.2-0.4c-0.1-0.1-0.4-0.2-0.5-0.2h-3.4c-0.3,0-0.5,0.2-0.7,0.5
	c0,0-0.2,0.4-0.3,1.2c-0.8-0.7-1.6-1.1-2.4-1.4c0,0-0.4-0.2-0.5-0.2c-3.7-0.9-7.4,0.3-10.4,3.1c-1.8,1.7-3,3.6-3.8,5.7L96.3,53
	l1.5-8.3c0-0.2,0-0.4-0.2-0.5S97.4,44,97.2,44h-3.8c-0.3,0-0.6,0.2-0.6,0.5L89,64.8c0,0.2,0,0.4,0.1,0.5c0.1,0.2,0.3,0.1,0.5,0.1
	h3.7c0.3,0,0.6-0.1,0.6-0.4l1.5-8.3c0,0.1,0.1,1.8,0.2,2.6c0.5,3.1,3.3,6,6.3,6.6c2.6,0.5,5.4-0.2,8.1-1.9c-0.1,0.3-0.1,0.7-0.1,0.7
	V65c0,0.2,0,0.2,0.1,0.4c0.1,0.2,0.3,0.2,0.5,0.2h3.4c0.3,0,0.6-0.1,0.6-0.4l2.9-16c2.2,2.6,5.1,4.9,5.1,4.9
	c5.6,3.8,12.2,2.3,14-2.3c0.2-0.2,0.3-0.4,0.4-0.7c-0.5,5-6.6,8.1-12.9,5.9c0,0-2.8-1.1-5.8-3.4c0,0.1,0,0.2,0.1,0.4
	c0.4,1.4,0.9,2.7,1.5,3.9c3.5,1.4,6.5,1.7,6.5,1.7c6.8,0.5,11.9-4.2,11-9.3c0-0.2,0-0.3,0-0.5v-0.2c2.1,4.6-1.6,10.4-8.2,11.7
	c0,0-3,0.5-6.7,0c0.9,0.9,1.9,1.8,3,2.5c3.9-0.5,6.7-1.8,6.7-1.8c6.1-3,8.1-9.5,5-13.3c-0.1-0.3-0.3-0.5-0.4-0.8
	c4.2,2.9,3.9,9.8-1.2,14.2c0,0-2.5,2.1-6.2,3.5c1.4,0.5,2.9,0.8,4.5,0.8c3.2-2.4,5.1-5,5.1-5c3.9-5.7,2.2-12.6-2.7-14.2
	c-0.2-0.1-0.4-0.2-0.6-0.3c5.2,0.3,8.5,6.4,6.3,13c0,0-1.1,3.1-3.6,6.2c0.2,0,0.4-0.1,0.6-0.1c1.2-0.3,2.5-0.8,3.6-1.4
	c1.6-3.8,1.9-7,1.9-7c0.5-6.7-4.1-11.7-9-11c-0.2,0-0.4-0.1-0.6-0.1h-0.1c4.6-2,10.3,1.7,11.5,8.3c0,0,0.8,3.1,0.2,6.8
	c-0.1,0.5-0.4,1.3-0.8,2.1c-0.1,0.2-0.3,0.5-0.5,0.8c0,0,0,0,0,0c-0.1,0.1-0.1,0.4,0,0.5c0.1,0.2,0.3,0.3,0.4,0.3h5.3
	c0.2,0,0.3-0.1,0.4-0.2c0,0,17.6-18.9,19.6-21.3c-0.8,4-2.3,13.7-3.8,20.9v0.1c0,0.1,0,0.2,0.1,0.3c0.1,0.1,0.2,0.2,0.4,0.2h4.2
	c0.2,0,0.3-0.1,0.4-0.2c0,0,14.2-18.9,16.3-21.3c-0.9,4-2.4,13.8-3.8,20.9V65c0,0.1,0,0.2,0.1,0.3c0.1,0.1,0.2,0.2,0.4,0.2h4.2
	c0.2,0,0.4-0.2,0.5-0.4l1.5-8.8v0.5c0,0.8-0.3,1.7-0.2,2.5c0.5,3.1,3.3,6,6.3,6.6c2.6,0.5,5.4-0.2,8.1-1.9c-0.1,0.3-0.1,0.7-0.1,0.7
	v0.1c0,0.2,0.1,0.3,0.2,0.4c0.1,0.2,0.3,0.1,0.5,0.1h3.4c0.3,0,0.6-0.1,0.6-0.4l3-16.1L213.5,44.5 M112.3,55.2
	c-0.8,2.7-3.1,5.1-5.5,5.7c-1.8,0.4-3.4,0.1-4.4-0.5c-1-0.7-1.6-1.9-1.9-3c-0.1-0.5-0.1-0.8-0.1-1.1c0-2.4,1.3-4.8,3.7-6.5
	c1.4-1,3.2-1.3,4.9-1c0.9,0.2,2.2,0.8,3,2.2c0.4,0.8,0.7,1.8,0.7,2.7C112.6,54.2,112.5,54.7,112.3,55.2 M207.3,55.2
	c-0.8,2.7-3.3,5.2-5.7,5.8c-1.9,0.3-3.3,0.1-4.2-0.5c-1-0.7-1.6-1.9-1.9-3c-0.1-0.4-0.1-0.8-0.1-1.1c0-2.4,1.3-4.8,3.7-6.5
	c1.4-1,3.2-1.3,4.9-1c0.9,0.2,2.2,0.8,3,2.2c0.4,0.8,0.6,1.8,0.6,2.7C207.5,54.2,207.5,54.7,207.3,55.2"/>
<path id="path1123" class="st1" d="M250.8,43.5c-0.1-0.2-0.3-0.2-0.5-0.2h-3.8c0.2-1.2,1-5.5,1-5.5v-0.1c0-0.2-0.1-0.3-0.2-0.4
	c-0.1-0.2-0.3-0.2-0.5-0.2h-3.7c-0.3,0-0.6,0.2-0.6,0.5c0,0-0.9,4.8-1.1,5.7h-2.1c-0.2,0-0.4,0.1-0.6,0.3c-0.1-0.2-0.3-0.3-0.5-0.3
	h-4.3c-0.2,0-0.3,0.1-0.5,0.2c0,0-3,3.8-4.8,5.7c0.5-3,2.1-11.3,2.1-11.3v-0.1c0-0.2-0.1-0.3-0.2-0.4c-0.1-0.2-0.3-0.2-0.5-0.2h-3.7
	c-0.3,0-0.6,0.2-0.6,0.5c-0.1,0.5-0.6,2.8-1.1,5.7c0,0,0,0,0,0c-0.1-0.2-0.3-0.3-0.5-0.2c-1.6,0-3.2,0.7-4.4,1.4l0.1-0.5
	c0-0.2,0-0.4-0.1-0.5c-0.1-0.2-0.3-0.2-0.5-0.2h-3.4c-0.3,0-0.6,0.2-0.6,0.5l-0.1,0.5l-3.6,19.3c0,0.2,0,0.3,0.2,0.5
	s0.3,0.2,0.5,0.2h3.2c0.3,0,0.6-0.2,0.6-0.5l2.5-12c0.8-3,2.9-3.9,4.7-4.2c0.1,0,0.5,0,0.5-0.1c-1.2,7.3-2.7,15.9-2.7,16.1
	c0,0.2,0,0.4,0.2,0.5c0.1,0.2,0.3,0.2,0.5,0.2h3.6c0.3,0,0.5-0.2,0.6-0.4c0.1-0.3,1-5.3,1.6-8.3c1.3,2,5.3,8.4,5.3,8.4
	c0.1,0.2,0.3,0.3,0.5,0.3h4c0.1,0,0.2-0.1,0.2-0.1c0.1,0.1,0.2,0.1,0.3,0.1h4.2c0.3,0,0.6-0.2,0.6-0.5c0,0,2.9-15.1,3-16.1h4
	c0.3,0,0.6-0.2,0.6-0.5L251,44v-0.1C251,43.7,250.9,43.6,250.8,43.5 M237.8,62.5c-1.5-2.4-5.8-9.2-6.1-9.8c0.5-0.6,5.8-6.9,6.9-8.2
	l-0.5,2.5c0,0.2,0,0.4,0.1,0.5c0.1,0.2,0.3,0.2,0.5,0.2h1.8C240.4,48.9,238.4,59.2,237.8,62.5"/>
<path id="path1125" class="st1" d="M92.9,37.5c-0.1-0.2-0.3-0.2-0.5-0.2H89c-0.3,0-0.6,0.2-0.6,0.5c0,0-1.2,5.6-1.6,7.4
	c-0.8-0.7-1.6-1-2.5-1.4L84,43.6c0,0-0.1,0-0.1,0c-3.7-0.8-7.4,0.3-10.4,3.1c-1.8,1.6-3.1,3.6-3.8,5.6c-0.1-1.7-0.6-3.4-1.2-4.7l0,0
	c-1.8-2.9-4.8-4.3-8.6-4.1h-0.1c-4.3,0.5-8.5,3.3-10.6,7.2L49,50.9l3.2-17.3c0-0.2,0-0.3-0.1-0.4C52,33.1,51.9,33,51.7,33h-4.4
	c-0.1,0-0.3,0.1-0.4,0.2c0,0-13.8,17.5-15.9,19.9c0.6-3,3.6-19.5,3.6-19.5v-0.1c0-0.1,0-0.2-0.1-0.3c-0.1-0.1-0.2-0.2-0.4-0.2h-4.3
	c-0.1,0-0.3,0.1-0.4,0.2L2.1,63.9C2,64.1,2,64.3,2.1,64.4c0.1,0.2,0.3,0.3,0.5,0.3H8c0.2,0,0.3-0.1,0.4-0.2c0,0,17.3-19.2,19.4-21.6
	c-0.8,3.9-2.4,14.1-4,21.2v0.1c0,0.1,0,0.2,0.1,0.3c0.1,0.1,0.2,0.2,0.4,0.2h4.2c0.2,0,0.3-0.1,0.4-0.2c0,0,14.4-19.2,16.5-21.6
	c-0.9,4-2.3,14.2-4,21.2v0.1c0,0.1,0,0.2,0.1,0.3c0.1,0.1,0.2,0.2,0.4,0.2H46c0.2,0,0.4-0.2,0.5-0.4l1.6-8.2c0,1.8,0.4,3.5,1.1,4.8
	c1.5,2.6,4.2,4.1,7.5,4.2c4.7,0,9.1-2.7,11.1-6.8c0.1-0.2,0.1-0.4,0-0.6c-0.1-0.2-0.3-0.3-0.5-0.3h-3.5c-0.2,0-0.4,0.1-0.5,0.2
	c-1.7,1.8-3.5,2.8-5.5,2.8c-2,0.1-3.8-1.1-4.6-2.9c0-0.1-0.1-0.2-0.1-0.2c-0.1-0.3-0.2-0.7-0.2-0.9c0-0.1,0-0.1,0-0.2h15.7
	c0.2,0,0.3-0.1,0.5-0.2c0,0.8,0.1,1.6,0.2,2.5c0.5,3.1,3.3,5.9,6.3,6.5c2.6,0.5,5.4-0.2,8.2-1.9c-0.1,0.3-0.1,0.7-0.1,0.7v0.1
	c0,0.2,0.1,0.3,0.2,0.4c0.1,0.2,0.3,0.1,0.5,0.1h3.4c0.3,0,0.6-0.1,0.6-0.4L93.1,38C93.1,37.8,93.1,37.7,92.9,37.5 M54.2,51.7
	c1-1.9,3.2-3.1,5-3.3c2-0.1,3,0.3,3.8,1.1c0.8,0.8,1.2,1.5,1.3,2.2C63.3,51.7,55.8,51.7,54.2,51.7 M85.8,53.3c0,0.6-0.1,1-0.2,1.4
	c-0.7,2.6-3.2,5.1-5.7,5.7c-1.9,0.3-3.4,0.1-4.3-0.5c-1-0.7-1.7-1.8-1.9-3c-0.1-0.5-0.1-0.8-0.1-1.2c0-2.4,1.4-4.7,3.8-6.5
	c1.4-0.9,3.2-1.3,4.9-0.9c0.9,0.2,2.1,0.8,2.9,2.2C85.6,51.3,85.8,52.3,85.8,53.3"/>
<path id="path1127" class="st1" d="M93.8,43.1h3.9c0.3,0,0.6-0.3,0.7-0.7l0.8-4.6c0-0.2,0-0.4-0.1-0.6c-0.1-0.2-0.3-0.3-0.5-0.3
	h-3.9c-0.3,0-0.6,0.3-0.7,0.6l-0.8,4.6c0,0.2,0,0.5,0.1,0.7C93.4,43,93.6,43.1,93.8,43.1"/>
<path id="path1129" class="st1" d="M251.5,37c1.4,0,2.5,1.1,2.5,2.5c0,1.4-1.1,2.5-2.5,2.5s-2.5-1.1-2.5-2.5
	C248.9,38.2,250.1,37,251.5,37z M251.5,41.7c1.2,0,2.1-0.9,2.1-2.1c0-1.2-0.9-2.1-2.1-2.1c-1.1,0-2.1,0.9-2.1,2.1
	C249.4,40.7,250.3,41.7,251.5,41.7z M251,40.9h-0.6v-2.7h1.3c0.2,0,1.1,0,1.1,0.8c0,0.5-0.4,0.7-0.5,0.7l0.5,1.2h-0.6l-0.5-1.1h-0.7
	L251,40.9z M251,39.4h0.6c0.2,0,0.5,0,0.5-0.4c0-0.2-0.1-0.4-0.5-0.4H251V39.4z"/>
</svg>
