<?xml version="1.0" encoding="utf-8"?>
<!-- Generator: Adobe Illustrator 22.0.0, SVG Export Plug-In . SVG Version: 6.00 Build 0)  -->
<svg version="1.1" id="Layer_1" xmlns="http://www.w3.org/2000/svg" xmlns:xlink="http://www.w3.org/1999/xlink" x="0px" y="0px"
	 viewBox="0 0 255 100" style="enable-background:new 0 0 255 100;" xml:space="preserve">
<style type="text/css">
	.st0{fill:#FFFFFF;}
	.st1{fill:#9AABBC;}
</style>
<rect id="Rectangle-8-Copy-2" class="st0" width="255" height="100"/>
<path id="Shape" class="st1" d="M179.5,68.1c2.1,0.2,4.1,0.4,6.2,0.6l4.5-11.2l4.3,12.3c2.2,0.3,4.4,0.6,6.6,0.9l-7.6-21.5l7.6-18.7
	h-6.4l-0.1,0.1l-4.1,10.1L187,30.5h-6.3l6.5,18.6L179.5,68.1L179.5,68.1z M174.7,67.7V30.5h-6.3v36.7
	C170.5,67.3,172.6,67.5,174.7,67.7L174.7,67.7z M127.2,65.6c1.7,0,3.4,0,5.1,0V52h7.6v-5.8h-7.6v-9.8h8.8v-5.8h-15.1v35.1
	C126.3,65.6,126.7,65.6,127.2,65.6z M107.5,66c2.1-0.1,4.2-0.1,6.3-0.2V36.3h5.9v-5.8h-18.2v5.8h5.9L107.5,66L107.5,66z M59.1,69.9
	V47.7L66.6,69c2.3-0.3,4.6-0.5,6.9-0.7V30.5h-6.1v23l-8.1-23H53v40.2h0C55,70.4,57.1,70.2,59.1,69.9z M95.5,36.3v-5.8H80.4v37.1
	c5-0.4,10.1-0.8,15.1-1.1v-5.8c-2.9,0.2-5.8,0.4-8.7,0.6V52h7.6v-5.8h-7.6v-9.8H95.5z M153.6,60.4V30.5h-6.4V66
	c5.1,0.2,10.1,0.4,15.1,0.8v-5.8C159.4,60.7,156.5,60.6,153.6,60.4L153.6,60.4z"/>
</svg>
