<?xml version="1.0" encoding="utf-8"?>
<!-- Generator: Adobe Illustrator 22.0.0, SVG Export Plug-In . SVG Version: 6.00 Build 0)  -->
<svg version="1.1" id="Layer_1" xmlns="http://www.w3.org/2000/svg" xmlns:xlink="http://www.w3.org/1999/xlink" x="0px" y="0px"
	 viewBox="0 0 255 100" style="enable-background:new 0 0 255 100;" xml:space="preserve">
<style type="text/css">
	.st0{fill:#FFFFFF;}
	.st1{fill:#9AABBC;}
</style>
<rect id="Rectangle-8-Copy-3" class="st0" width="255" height="100"/>
<path id="Shape" class="st1" d="M101.6,45.1c0-5.3,3.9-9,10.9-9c4.3,0,7.8,1.4,9.7,2.7c0.3,0.2,0.8,0.7,0.5,1.5
	c-0.4,0.9-1.1,2.3-1.5,3.2c-0.3,0.5-1,0.5-1.4,0.3c-1.4-0.7-3.6-1.8-5.6-2.1c-0.5-0.1-1-0.1-1.6-0.1c-1.8,0-3.3,0.7-3.8,2
	c-0.1,0.3-0.2,0.5-0.2,0.8c0,1.8,2.5,2.5,5.5,3c5.7,1,10,2.6,10,8.5c0,5-3.9,9.4-11.6,9.3c-5.1-0.1-8.7-1.8-10.6-3.5
	c-0.1-0.1-0.8-0.8-0.4-1.7c0.5-1.2,1.2-2.5,1.8-3.2c0.3-0.5,1.2-0.5,1.7-0.2c1.6,1,4.2,2.6,7.2,2.7c0.2,0,0.5,0,0.7,0
	c2.7-0.1,4.4-1.1,4.3-2.8c0-1.5-2.2-2.4-5.6-3.1C106,52.4,101.6,50.6,101.6,45.1L101.6,45.1z M151.3,52.7c-3.9,0.1-7.4,1.1-7.5,4.1
	c0,2.4,1.9,3.6,4.7,3.4c2.6-0.3,4.6-1.4,5.5-2.9c0.3-0.6,0.4-2.6,0.4-3.5c0-0.2-0.4-0.5-0.5-0.6C152.9,52.8,152.3,52.7,151.3,52.7
	L151.3,52.7z M138.4,40.5c1.8-1.6,5.4-4.1,11.1-4c7.5,0.2,11.5,3.7,11.9,12.1c0.2,3.5-0.1,13.2-0.2,15.6c0,0.3-0.1,0.6-0.6,0.6
	c-1.2,0-4.1,0-5.4,0c-0.7,0-0.7-0.4-0.7-0.7c0-0.2,0-0.9,0-1.4c0-0.3-0.3-0.3-0.3-0.2c-1.8,1.9-4.7,2.8-7.7,2.8
	c-4.7,0-9.3-2.7-9.3-8.2c0-5.6,4-8.3,8.3-9c2.8-0.4,5.9,0,8.3,0.9c0.2,0.1,0.5,0,0.5-0.2c0-0.7,0-2.1-0.2-2.7
	c-0.3-1.6-1.7-3-4.6-3.3c-0.6-0.1-1.2-0.1-1.8,0c-2.3,0.2-5,2-6.2,2.6c-0.3,0.2-0.7,0-0.8-0.1c-0.7-0.9-2.3-3.4-2.5-3.8
	C138,41.1,138.2,40.7,138.4,40.5L138.4,40.5z M163.9,50.9c0-7.8,5.4-14.3,14.2-14.4c5.5,0,9.5,2.5,10.2,3.6c0.1,0.3,0.1,0.5,0,0.8
	c-0.5,1-1.6,2.9-2.5,4c-0.4,0.5-0.7,0.1-1.2-0.2c-1.2-0.8-3.6-1.8-5.9-1.8c-4.2,0-7.4,2.9-7.3,8.2c0,5.1,3.1,7.9,7.4,8
	c2.3,0.1,4.4-1.2,5.6-2.3c0.4-0.3,0.8-0.2,1.2,0.2c0.8,0.8,2,2.2,2.7,3c0.4,0.5,0.1,1,0,1.2c-1.8,2.3-5.2,4.2-9.8,4.2
	C168.7,65.4,163.9,58.7,163.9,50.9L163.9,50.9z M209.5,65c0.4,0,5.2-0.7,6.7-1c0.4-0.1,0.5-0.4,0.3-0.7c-0.8-1.2-3-4.7-5.2-7.8
	c-2.1-2.9-4.3-5.4-5-6.4c-0.2-0.2-0.2-0.5,0-0.7c1.3-1.3,7-6.8,9.1-9.1c0.8-0.9,0.3-1.3-0.4-1.5c-1.3-0.4-3.5-0.9-4.8-1.2
	c-0.5-0.1-1.2-0.1-1.6,0.4c-2.1,2-8.6,8.5-10.5,10.4c-0.3,0.3-0.5,0.3-0.6-0.2c0-3.7-0.1-19.7-0.2-22.4c0-0.3-0.4-0.6-0.7-0.6
	c-1.2-0.1-4.3-0.1-5.5,0c-0.3,0-0.7,0.4-0.7,0.7c-0.3,4.2,0.1,35.1,0.3,39.4c0,0.3,0.2,0.6,0.5,0.6c1.2,0.1,4.2,0.1,5.6,0
	c0.7,0,0.8-0.5,0.8-0.5l0.1-8.3c0,0,0.1-0.4,0.2-0.5c0.5-0.5,1.8-2,2.4-2.5c0.1-0.1,0.4-0.1,0.5,0.1c0.7,0.9,2.6,3.9,4.5,6.6
	c1.7,2.5,3.2,4.7,3.3,4.8C209,65,209.2,65,209.5,65L209.5,65L209.5,65z M128.1,65c0.4,0,3.6,0,5,0c0.5,0,0.7-0.4,0.7-0.7
	c0.3-6.1,0.2-34.9,0-39.5c0-0.4-0.2-0.5-0.5-0.6c-1.2-0.2-4.7-0.1-5.8,0.2c-0.2,0.1-0.3,0.2-0.4,0.4c-0.3,11.7-0.1,38.8,0,39.3
	C127.3,64.7,127.6,65,128.1,65L128.1,65z"/>
<path id="Shape_1_" class="st1" d="M42.7,52.2c-2,0-3.6-1.2-4.2-3c0-0.1,0-0.1-0.1-0.2c-0.7-2.3,0.6-4.8,3-5.6l37.3-12.5
	c0.4-0.1,0.9-0.2,1.4-0.2c2,0,3.7,1.2,4.4,3.1l0.1,0.2c0.7,2.4-1,4.6-3.1,5.3c0,0-0.4,0.1-37.1,12.7C43.7,52.1,43.2,52.2,42.7,52.2z
	"/>
<path id="Shape_2_" class="st1" d="M48.9,70.6c-2,0-3.7-1.1-4.3-2.9c0-0.1,0-0.1-0.1-0.2c-0.7-2.4,0.6-4.8,3-5.6l37.3-12.6
	c0.5-0.2,1-0.2,1.5-0.2c2,0,3.7,1.2,4.4,3l0.1,0.2c0.4,1.3,0.1,2.7-0.6,3.8c-0.5,0.8-2.2,1.6-2.2,1.6L50.5,70.3
	C50,70.5,49.4,70.6,48.9,70.6L48.9,70.6z"/>
<path id="Shape_3_" class="st1" d="M80,70.7c-2,0-3.8-1.2-4.4-3.1l-12.5-37L63,30.3c-0.7-2.4,0.6-4.8,2.9-5.6
	c0.5-0.2,0.9-0.2,1.4-0.2c0.7,0,1.4,0.2,2.1,0.5c1.1,0.5,1.9,1.5,2.3,2.6l12.5,37l0,0.1c0.7,2.5-0.6,4.9-2.9,5.7
	C80.9,70.6,80.4,70.6,80,70.7z"/>
<path id="Shape_4_" class="st1" d="M61.4,76.9c-2,0-3.8-1.2-4.4-3.1l-12.5-37c-0.4-1.2-0.3-2.4,0.2-3.5s1.5-1.9,2.6-2.3
	c0.5-0.2,0.9-0.2,1.4-0.2c2,0,3.8,1.2,4.4,3.1l12.5,37c0.4,1.2,0.3,2.4-0.2,3.5c-0.5,1.1-1.5,1.9-2.6,2.3
	C62.4,76.8,61.9,76.9,61.4,76.9L61.4,76.9L61.4,76.9z"/>
<polygon id="Shape_5_" class="st1" points="73.8,62.3 82.5,59.3 79.7,50.9 71,53.9 "/>
<polygon id="Shape_6_" class="st1" points="55.3,68.6 64,65.7 61.1,57.2 52.4,60.1 "/>
<polygon id="Shape_7_" class="st1" points="67.6,43.9 76.3,41 73.5,32.6 64.8,35.6 "/>
<polygon id="Shape_8_" class="st1" points="49.1,50.3 57.8,47.3 55,38.9 46.3,41.8 "/>
</svg>
