<?xml version="1.0" encoding="utf-8"?>
<!-- Generator: Adobe Illustrator 22.0.0, SVG Export Plug-In . SVG Version: 6.00 Build 0)  -->
<svg version="1.1" id="Layer_1" xmlns="http://www.w3.org/2000/svg" xmlns:xlink="http://www.w3.org/1999/xlink" x="0px" y="0px"
	 viewBox="0 0 255 100" style="enable-background:new 0 0 255 100;" xml:space="preserve">
<style type="text/css">
	.st0{fill:#FFFFFF;}
	.st1{fill:#99ABBD;}
</style>
<rect id="Rectangle-8" class="st0" width="255" height="100"/>
<path id="Shape" class="st1" d="M81.8,27.1c0.3,0.1,0.5,0.4,0.7,0.7c0.4,0.3,0.7,0.8,1.1,1.2c0.5,0.5,0.8,1,1.2,1.6
	c0.7,1.1,1.3,2.2,1.6,3.4c0.3,0.8,0.4,1.8,0.4,2.7c0,0.8-0.2,1.6-0.6,2.4c-0.6,1.1-1.8,1.9-3,2.3c-1.5,0.4-3.2,0.4-4.6-0.2
	c-0.5-0.3-1.1-0.5-1.5-0.9c-1-0.8-1.5-2.1-1.4-3.4c0.3-2.2,1.6-4.2,3.1-5.8c0.1,0.2,0,0.5,0.1,0.8c0.1,0.5,0.3,1.1,0.7,1.5
	c0.5-0.5,1-0.9,1.5-1.5c0.4-0.6,0.7-1.2,0.8-1.9c0-0.9,0.1-1.8-0.2-2.6L81.8,27.1z M63,37.3c2.4,0,4.8,0,7.2,0c0,2.4,0,4.8,0,7.2
	c1.7,0,3.4,0,5.1,0c0,0.2,0,0.4,0,0.6c0,2,0,3.9,0,5.9c-1.7,0-3.4,0-5.1,0c0,3.5,0,7.1,0,10.6c0.1,0.3,0.1,0.6,0.1,0.9
	c0,0.3,0.1,0.5,0.2,0.8c0.1,0.6,0.5,1.2,0.9,1.7c0.6,0.6,1.3,1,2.1,1.1c0.7,0.1,1.4,0.2,2.2,0.1c0,0.1,0.1,0.2,0.1,0.4
	c0,1.8,0,3.7,0,5.5c0,0.3-0.1,0.5-0.1,0.8c-1,0-2.1,0.1-3.1,0c-0.6-0.1-1.3-0.1-1.9-0.3c-1.7-0.4-3.2-1.2-4.4-2.5
	c-1.7-1.7-2.7-4-3-6.4c-0.1-0.3,0-0.6-0.1-0.8c-0.1-0.6-0.1-1.2-0.1-1.7C63,53.2,63,45.3,63,37.3z M98.1,44c0.4-0.1,0.9,0,1.3-0.1
	c0.9-0.1,1.8,0,2.7,0.1c0.6,0,1.2,0.2,1.8,0.3c2.3,0.6,4.5,1.8,6,3.6c0.3,0.5,0.7,0.8,1,1.3c0.7,1.1,1.1,2.2,1.5,3.4
	c0.2,0.9,0.4,1.8,0.5,2.7c0.1,2,0,4,0,6c0,4,0,7.9,0,11.9c-2.4,0-4.8,0-7.2,0c0,0-0.1-0.1-0.1-0.1c0-5.5,0-11.1,0-16.6
	c0-0.7-0.1-1.3-0.3-2c-0.3-0.7-0.6-1.3-1-1.8c-0.3-0.3-0.6-0.5-0.9-0.8c-0.5-0.3-1-0.5-1.5-0.6c-0.3,0-0.6,0-0.8-0.1
	c-1.1-0.1-2.2,0-3.2,0.4c-0.7,0.4-1.4,0.9-1.9,1.5c-0.8,1-1.1,2.3-1.1,3.5c0,5.5,0,11,0,16.5c-2.4,0-4.8,0-7.3,0
	c0-5.3,0-10.6,0-15.9c0-0.7,0-1.4,0-2c0.1-0.3,0-0.7,0.1-1c0.2-1.3,0.7-2.4,1.2-3.6c0.5-1,1.1-1.9,1.9-2.7c0.6-0.6,1.3-1.3,2.1-1.7
	C94.4,44.9,96.3,44.2,98.1,44z M184.1,43.9c0.9,0,1.8-0.2,2.7-0.1c0.5,0.1,1,0.1,1.5,0.1c0.1,0.9,0,1.8,0,2.7v3.6
	c0,0.2,0,0.5-0.1,0.7c-0.2-0.2-0.6-0.1-0.8-0.2c-1.1-0.1-2.2,0-3.2,0.4c-1.2,0.4-2.3,1.3-2.9,2.5c-0.2,0.2-0.2,0.5-0.4,0.7
	c-0.3,1.1-0.3,2.4-0.3,3.5c0,5,0,10.1,0,15.1c-2.4,0-4.8,0-7.2,0c0,0-0.1-0.1-0.1-0.1V56.4c0-0.7,0.1-1.4,0.1-2
	c0.2-0.3,0.1-0.7,0.2-1c0.5-2.6,1.9-5,4-6.7c0.4-0.5,1-0.7,1.4-1C180.6,44.6,182.3,44.1,184.1,43.9z M77.7,44.5c2.4,0,4.8,0,7.3,0
	c0,9.4,0,18.8,0,28.2c0,0.1,0,0.3-0.1,0.2h-7.1c-0.1-1.5,0-3.1,0-4.7C77.7,60.3,77.7,52.4,77.7,44.5z M153.7,63.5
	c0.6-0.2,1.2-0.5,1.8-0.8c0.9-0.3,1.8-0.8,2.7-1.1c1.9-0.9,3.8-1.6,5.7-2.4c0.5-0.2,1-0.4,1.4-0.6c0.5-0.2,1-0.4,1.5-0.6
	c0.4-0.3,0.9-0.4,1.4-0.6c0.6-0.2,1.1-0.5,1.7-0.7c0.6-0.3,1.3-0.5,1.9-0.8c0.2-0.1,0.4-0.1,0.5-0.3c-0.2-0.2-0.1-0.6-0.2-0.8
	c-0.1-0.5-0.3-1-0.4-1.4c-0.5-1.4-1.1-2.8-2-4c-1.1-1.6-2.6-2.9-4.3-3.8c-1.1-0.7-2.3-1-3.6-1.4c-0.8-0.1-1.5-0.4-2.3-0.3
	c-0.7-0.1-1.4-0.1-2.1,0c-1.2,0-2.4,0.3-3.6,0.7c-2,0.7-3.9,1.8-5.5,3.3c-0.5,0.4-0.8,0.9-1.3,1.4c-0.7,0.9-1.3,1.8-1.8,2.8
	c-0.7,1.5-1.3,3.1-1.4,4.8c-0.2,0.8-0.2,1.6-0.2,2.5c0,0.5,0.1,1,0.2,1.5c0,0.5,0.2,1,0.2,1.5c0.2,1.1,0.7,2.1,1.1,3.1
	c1.2,2.5,3.1,4.6,5.5,6c1.6,1,3.3,1.7,5.1,1.9c1.5,0.2,3,0.3,4.5,0.1c0.5,0,1-0.2,1.5-0.2c2.2-0.5,4.3-1.4,6-3
	c0.5-0.4,1-0.9,1.3-1.3c0.7-0.7,1.1-1.5,1.6-2.3c0.5-0.9,0.8-1.8,1.1-2.7c-0.1-0.1-0.3,0-0.5,0c-2.4,0-4.8,0-7.2,0
	c-0.2,0-0.2,0.3-0.4,0.4c-0.4,0.6-0.9,1.1-1.5,1.6c-0.8,0.6-1.7,0.9-2.7,1.2c-0.2,0-0.5,0-0.7,0.1c-0.6,0-1.2,0-1.7,0
	c-0.6-0.1-1.3-0.3-1.9-0.5c-1-0.5-1.9-1.1-2.6-1.9c-0.2-0.2-0.5-0.4-0.5-0.7c0.2-0.1,0.3-0.2,0.5-0.2
	C153.2,63.9,153.4,63.6,153.7,63.5z M150.8,58.4c-0.1-0.4,0-0.8,0-1.2c0.2-0.5,0.2-1.1,0.4-1.6c0.5-1.2,1.1-2.3,2-3.2
	c0.4-0.3,0.8-0.7,1.2-1c0.3-0.2,0.7-0.4,1-0.6c0.7-0.2,1.3-0.5,2-0.5c0.6-0.2,1.3-0.1,1.9-0.1c1.7,0.2,3.4,1,4.5,2.3
	c0.1,0.3-0.3,0.3-0.4,0.4c-0.7,0.4-1.4,0.6-2.1,0.9c-0.3,0.1-0.6,0.2-0.8,0.3c-2.1,0.9-4.3,1.7-6.4,2.7
	C153,57.4,151.9,57.8,150.8,58.4z M143.1,32c-2.2,0-4.5,0-6.7,0c-0.2,0-0.4-0.1-0.5,0.1c0,4.8,0,9.7,0,14.5c0,0.2,0,0.3,0,0.5
	c-0.2,0-0.3-0.2-0.5-0.3c-1-0.9-2.2-1.7-3.5-2.1c-0.9-0.3-1.8-0.5-2.7-0.7c-1,0-2.1-0.1-3.2,0c-0.1,0-0.2,0.1-0.3,0.1
	c-2.4,0.3-4.5,1.4-6.4,2.9c-1,0.9-2,1.9-2.7,3.1c-0.8,1.2-1.4,2.5-1.9,3.9c-0.2,0.8-0.5,1.7-0.6,2.5c-0.2,1.3-0.1,2.7-0.1,4
	c0.1,0.3,0.2,0.7,0.2,1c0.2,1.1,0.5,2.2,1,3.3c0.4,1,1,1.9,1.6,2.9c0.4,0.5,0.8,1,1.3,1.5c0.7,0.7,1.4,1.5,2.3,2
	c1.1,0.8,2.3,1.3,3.6,1.8c0.5,0.1,0.9,0.3,1.3,0.3c0.4,0,0.7,0.2,1.1,0.2c0.2,0,0.4,0.1,0.6,0.1c1,0,2,0,3,0c0.2,0,0.3-0.1,0.5-0.1
	c0.7,0,1.3-0.3,2-0.3c0.9-0.3,1.8-0.5,2.6-1c1.2-0.6,2.3-1.3,3.3-2.2c1.2-1.1,2.2-2.4,3-3.9c0.3-0.6,0.7-1.3,0.9-2
	c0.4-1,0.6-2,0.7-3c0.2-0.9,0.2-1.8,0.2-2.8C143.1,49.5,143.1,40.7,143.1,32z M135.8,59.7c-0.1,1.1-0.5,2.1-1,3.1
	c-0.8,1.5-2.2,2.7-3.7,3.4c-0.2,0.1-0.5,0.1-0.7,0.3c-0.3,0-0.6,0-0.9,0.1c-0.9,0-1.8,0.1-2.7-0.1c-0.4-0.2-0.8-0.2-1.1-0.4
	c-0.5-0.3-1-0.4-1.4-0.8c-0.7-0.5-1.3-1.2-1.8-1.9c-0.4-0.7-0.8-1.4-1-2.2c-0.2-0.4-0.2-0.9-0.3-1.3c0-1.1-0.1-2.2,0.2-3.3
	c0.1-0.3,0.2-0.7,0.3-1c0.3-0.5,0.5-1.1,0.9-1.6c0.2-0.4,0.6-0.7,0.9-1.1c0.8-0.9,1.8-1.4,2.9-1.9c0.4-0.1,0.8-0.3,1.2-0.3
	c0.9-0.2,1.7,0,2.6,0.1c1.1,0.4,2.2,1,3.1,1.8c0.3,0.3,0.6,0.7,0.9,1C135.5,55.3,136.1,57.6,135.8,59.7z M184,69.3h2.7
	c0,0.2,0,0.4,0,0.6c-0.3,0-0.6,0-0.9,0c0,0.9,0,1.8,0,2.8c-0.3,0-0.6,0-0.8,0c0-0.7,0-1.5,0-2.2c0-0.2,0-0.4-0.1-0.6
	c-0.3,0-0.5,0-0.8,0C184,69.7,184,69.5,184,69.3z M187.2,69.3c0.4,0,0.8,0,1.1,0c0,0.3,0.2,0.5,0.3,0.8c0.1,0.3,0.3,0.7,0.4,1
	c0.1,0.2,0.2,0.3,0.2,0.5c0.2-0.8,0.5-1.6,0.8-2.3c0.4,0,0.7,0,1.1,0c0,1.1,0,2.2,0,3.3c-0.2,0-0.5,0-0.7,0c0-0.8,0-1.5,0-2.3
	c-0.1,0.1-0.2,0.2-0.3,0.3c-0.1,0.7-0.5,1.3-0.7,2c-0.2,0-0.4,0-0.6,0c-0.1-0.4-0.3-0.7-0.3-1.1c-0.3-0.3-0.3-0.8-0.5-1.2
	c-0.1,0.3,0,0.6-0.1,0.9c0,0.5,0.1,1,0,1.5c-0.2,0-0.5,0.1-0.7-0.1C187.2,71.5,187.2,70.4,187.2,69.3z"/>
</svg>
