<?xml version="1.0" encoding="utf-8"?>
<!-- Generator: Adobe Illustrator 22.0.0, SVG Export Plug-In . SVG Version: 6.00 Build 0)  -->
<svg version="1.1" id="Layer_1" xmlns="http://www.w3.org/2000/svg" xmlns:xlink="http://www.w3.org/1999/xlink" x="0px" y="0px"
	 viewBox="0 0 127 30" style="enable-background:new 0 0 127 30;" xml:space="preserve">
<style type="text/css">
	.st0{filter:url(#Adobe_OpacityMaskFilter);}
	.st1{fill:#FFFFFF;}
	.st2{mask:url(#mask-2_1_);fill:#B5BBC1;}
	.st3{filter:url(#Adobe_OpacityMaskFilter_1_);}
	.st4{mask:url(#mask-4_1_);fill:#FFFFFF;}
	.st5{fill:#DADADA;}
</style>
<defs>
	<filter id="Adobe_OpacityMaskFilter" filterUnits="userSpaceOnUse" x="0" y="0.4" width="25.2" height="25.2">
		<feColorMatrix  type="matrix" values="1 0 0 0 0  0 1 0 0 0  0 0 1 0 0  0 0 0 1 0"/>
	</filter>
</defs>
<mask maskUnits="userSpaceOnUse" x="0" y="0.4" width="25.2" height="25.2" id="mask-2_1_">
	<g class="st0">
		<polygon id="path-1_1_" class="st1" points="0,0.4 25.2,0.4 25.2,25.6 0,25.6 		"/>
	</g>
</mask>
<path id="Fill-1" class="st2" d="M1.4,0.4h18.7c2.8,0,5.1,2.3,5.1,5.1v18.7c0,0.8-0.6,1.4-1.4,1.4H7.6C3.4,25.6,0,22.2,0,18V1.8
	C0,1,0.6,0.4,1.4,0.4"/>
<defs>
	<filter id="Adobe_OpacityMaskFilter_1_" filterUnits="userSpaceOnUse" x="3.9" y="6.9" width="12.9" height="22.8">
		<feColorMatrix  type="matrix" values="1 0 0 0 0  0 1 0 0 0  0 0 1 0 0  0 0 0 1 0"/>
	</filter>
</defs>
<mask maskUnits="userSpaceOnUse" x="3.9" y="6.9" width="12.9" height="22.8" id="mask-4_1_">
	<g class="st3">
		<polygon id="path-3_1_" class="st1" points="3.9,6.9 16.8,6.9 16.8,29.7 3.9,29.7 		"/>
	</g>
</mask>
<path id="Fill-4" class="st4" d="M16.8,13.1v12c0,2.5-2.1,4.6-4.6,4.6H3.9V11.5C3.9,9,6,6.9,8.5,6.9h8.4V13.1"/>
<path id="Fill-7" class="st1" d="M45.3,8.7l-2.9,7.7h5.8L45.3,8.7z M51.1,24.2l-1.8-4.7h-8l-1.8,4.7h-3.4l7.4-18.9h3.7l7.4,18.9
	H51.1z"/>
<path id="Fill-9" class="st1" d="M64.7,10.5v3.3c-0.4-0.1-0.7-0.1-1-0.1c-2.3,0-3.5,1.3-3.5,4v6.5h-3.1V10.4h3v2.3
	c0.3-0.7,0.8-1.3,1.5-1.7c0.7-0.4,1.4-0.6,2.3-0.6C64.1,10.4,64.4,10.4,64.7,10.5"/>
<path id="Fill-11" class="st1" d="M70.5,20.3c0.7,0.7,1.6,1.1,2.6,1.1c1,0,1.9-0.4,2.6-1.1c0.7-0.7,1.1-1.7,1.1-3
	c0-1.3-0.4-2.3-1.1-3c-0.7-0.7-1.6-1.1-2.6-1.1c-1,0-1.9,0.4-2.6,1.1c-0.7,0.7-1.1,1.7-1.1,3S69.8,19.6,70.5,20.3 M73.1,10.4
	c2,0,3.6,0.6,4.8,1.9c1.3,1.3,1.9,2.9,1.9,4.9c0,2-0.6,3.6-1.9,4.9c-1.3,1.3-2.9,2-4.8,2c-1.9,0-3.5-0.7-4.8-2
	c-1.3-1.3-1.9-3-1.9-4.9c0-2,0.6-3.6,1.9-4.9C69.6,11,71.2,10.4,73.1,10.4"/>
<path id="Fill-13" class="st1" d="M86.2,24.2h-3.1V10.4h3v2.1c0.4-0.7,0.9-1.2,1.6-1.5c0.7-0.4,1.5-0.6,2.2-0.6
	c0.9,0,1.7,0.2,2.3,0.6c0.7,0.4,1.2,1,1.5,1.8c0.9-1.6,2.3-2.4,4.2-2.4c1.3,0,2.4,0.4,3.3,1.3c0.9,0.9,1.3,2.1,1.3,3.8v8.7h-3V16
	c0-0.8-0.2-1.5-0.6-2c-0.4-0.5-1-0.8-1.9-0.8c-0.8,0-1.4,0.3-1.9,0.9c-0.5,0.6-0.7,1.3-0.7,2.1v8h-3V16c0-0.8-0.2-1.5-0.6-2
	c-0.4-0.5-1-0.8-1.9-0.8c-0.8,0-1.5,0.3-2,0.8c-0.5,0.6-0.7,1.3-0.7,2.1V24.2z"/>
<path id="Fill-15" class="st1" d="M109.8,20.3c0.7,0.7,1.6,1.1,2.6,1.1c1,0,1.9-0.4,2.6-1.1c0.7-0.7,1.1-1.7,1.1-3
	c0-1.3-0.4-2.3-1.1-3c-0.7-0.7-1.6-1.1-2.6-1.1c-1,0-1.9,0.4-2.6,1.1c-0.7,0.7-1.1,1.7-1.1,3S109.1,19.6,109.8,20.3 M112.4,10.4
	c2,0,3.6,0.6,4.8,1.9c1.3,1.3,1.9,2.9,1.9,4.9c0,2-0.6,3.6-1.9,4.9c-1.3,1.3-2.9,2-4.8,2c-1.9,0-3.5-0.7-4.8-2
	c-1.3-1.3-1.9-3-1.9-4.9c0-2,0.6-3.6,1.9-4.9C108.8,11,110.4,10.4,112.4,10.4"/>
<path id="Fill-17" class="st5" d="M122.3,23.6c-0.4-0.4-0.6-0.9-0.6-1.5c0-0.6,0.2-1.1,0.6-1.5c0.4-0.4,0.9-0.6,1.5-0.6
	c0.6,0,1.1,0.2,1.5,0.6c0.4,0.4,0.6,0.9,0.6,1.5c0,0.6-0.2,1.1-0.6,1.5c-0.4,0.4-0.9,0.6-1.5,0.6C123.2,24.2,122.7,24,122.3,23.6"/>
</svg>
