<?xml version="1.0" encoding="utf-8"?>
<!-- Generator: Adobe Illustrator 22.0.0, SVG Export Plug-In . SVG Version: 6.00 Build 0)  -->
<svg version="1.1" id="Layer_1" xmlns="http://www.w3.org/2000/svg" xmlns:xlink="http://www.w3.org/1999/xlink" x="0px" y="0px"
	 viewBox="0 0 12 2" style="enable-background:new 0 0 12 2;" xml:space="preserve">
<style type="text/css">
	.st0{fill:#FFFFFF;}
</style>
<path id="Shape" class="st0" d="M1,0C0.4,0,0,0.4,0,1s0.4,1,1,1s1-0.4,1-1S1.6,0,1,0z M11,0c-0.6,0-1,0.4-1,1s0.4,1,1,1s1-0.4,1-1
	S11.6,0,11,0z M6,0C5.4,0,5,0.4,5,1s0.4,1,1,1s1-0.4,1-1S6.6,0,6,0z"/>
</svg>
