<?xml version="1.0" encoding="utf-8"?>
<!-- Generator: Adobe Illustrator 22.0.0, SVG Export Plug-In . SVG Version: 6.00 Build 0)  -->
<svg version="1.1" id="Layer_1" xmlns="http://www.w3.org/2000/svg" xmlns:xlink="http://www.w3.org/1999/xlink" x="0px" y="0px"
	 viewBox="0 0 24 24" style="enable-background:new 0 0 24 24;" xml:space="preserve">
<style type="text/css">
	.st0{fill:#41479B;}
	.st1{fill:#F5F5F5;}
	.st2{fill:#FF4B55;}
</style>
<path id="Shape" class="st0" d="M18.8,24H5.2C2.4,24,0,21.6,0,18.8V5.2C0,2.4,2.4,0,5.2,0h13.5C21.6,0,24,2.4,24,5.2v13.5
	C24,21.6,21.6,24,18.8,24z"/>
<path id="Shape_1_" class="st1" d="M24,18.7v-1.2l-3.7-2.4H24v-1.3H13.9V24h1.3v-7.7l8,5.2c0.3-0.4,0.5-0.9,0.6-1.4"/>
<path id="Shape_2_" class="st1" d="M0.4,20.6c0.1,0.3,0.3,0.6,0.5,0.9l8-5.2V24h1.3V13.9H0v1.3h3.7L0,17.6v1.2c0,0.2,0,0.4,0,0.6"/>
<path id="Shape_3_" class="st1" d="M0,5.4v1l3.7,2.4H0v1.3h10.1V0H8.8v7.7l-8-5.2C0.5,2.9,0.3,3.4,0.1,4"/>
<path id="Shape_4_" class="st1" d="M23.6,3.3c-0.1-0.3-0.3-0.6-0.5-0.9l-8,5.2V0h-1.3v10.1H24V8.8h-3.7L24,6.4V5.2
	c0-0.2,0-0.4,0-0.6"/>
<polygon id="Shape_5_" class="st2" points="13.9,0 10.1,0 10.1,10.1 0,10.1 0,13.9 10.1,13.9 10.1,24 13.9,24 13.9,13.9 24,13.9 
	24,10.1 13.9,10.1 "/>
<path id="Shape_6_" class="st2" d="M6.5,15.2L0,19.3c0.1,0.5,0.2,0.9,0.3,1.3l8.5-5.5L6.5,15.2L6.5,15.2z"/>
<path id="Shape_7_" class="st2" d="M16.1,15.2l7.7,5c0.1-0.4,0.2-0.9,0.2-1.4v0l-5.5-3.6H16.1z"/>
<path id="Shape_8_" class="st2" d="M7.6,8.8L0.1,4C0.1,4.4,0,4.8,0,5.2v0.2l5.3,3.4H7.6z"/>
<path id="Shape_9_" class="st2" d="M17.5,8.8L24,4.6c-0.1-0.5-0.2-0.9-0.3-1.3l-8.5,5.5H17.5z"/>
</svg>
